<!DOCTYPE svg PUBLIC "-//W3C//DTD SVG 20010904//EN" "http://www.w3.org/TR/2001/REC-SVG-20010904/DTD/svg10.dtd">
<svg version="1.0" xmlns="http://www.w3.org/2000/svg" width="641px" height="740px" viewBox="0 0 6410 7400" preserveAspectRatio="xMidYMid meet"><g fill="#8ebcf3" stroke="none">
 <path d="M6196 5462 c-3 -6 1 -15 8 -21 8 -7 17 -8 20 -3 3 6 -1 15 -8 21 -8 7 -17 8 -20 3z"/>
 <path d="M6247 5394 c-9 -10 22 -66 33 -59 6 4 4 18 -5 36 -17 31 -18 32 -28 23z"/>
 <path d="M219 4883 c-6 -15 -12 -37 -13 -48 -1 -12 -6 -26 -10 -33 -4 -7 -4 -12 0 -12 3 0 1 -7 -6 -15 -7 -9 -10 -18 -7 -22 4 -3 2 -12 -4 -19 -7 -8 -7 -14 1 -19 5 -3 11 -4 11 -1 3 14 7 27 9 34 2 4 4 12 5 17 2 6 4 13 5 18 1 4 3 10 5 15 1 4 6 18 12 32 20 49 24 68 13 75 -5 3 -15 -6 -21 -22z"/>
 </g>

<g fill="#c4dffc" stroke="none">
 <path d="M1667 6819 c-97 -50 -92 -71 6 -24 40 18 80 36 90 39 19 6 14 26 -6 26 -7 -1 -47 -19 -90 -41z"/>
 <path d="M1451 6686 c-7 -8 -8 -17 -3 -20 6 -3 15 1 21 8 7 8 8 17 3 20 -6 3 -15 -1 -21 -8z"/>
 <path d="M1411 6656 c-7 -8 -8 -17 -3 -20 6 -3 15 1 21 8 7 8 8 17 3 20 -6 3 -15 -1 -21 -8z"/>
 <path d="M1231 6506 c-7 -8 -8 -17 -3 -20 6 -3 15 1 21 8 7 8 8 17 3 20 -6 3 -15 -1 -21 -8z"/>
 <path d="M1151 6426 c-18 -19 -29 -36 -23 -39 5 -4 23 9 41 27 18 19 29 36 23 39 -5 4 -23 -9 -41 -27z"/>
 <path d="M1046 6321 c-32 -32 -54 -61 -49 -64 5 -3 36 20 67 52 32 32 54 61 49 64 -5 3 -36 -20 -67 -52z"/>
 <path d="M720 5911 c-6 -12 -6 -22 -1 -26 6 -3 15 3 21 14 6 12 6 22 1 26 -6 3 -15 -3 -21 -14z"/>
 <path d="M6207 5464 c-3 -5 3 -20 12 -33 11 -14 21 -19 25 -13 3 5 -2 20 -12 33 -11 12 -21 18 -25 13z"/>
 </g>

<g fill="#b3d8fd" stroke="none">
 <path d="M1645 6802 c-110 -57 -187 -110 -180 -122 3 -5 37 11 75 36 39 25 104 61 145 81 41 19 72 39 69 44 -8 13 -12 12 -109 -39z"/>
 <path d="M1411 6651 c-19 -16 -30 -31 -24 -34 5 -3 25 6 43 22 19 15 29 30 24 33 -5 4 -25 -6 -43 -21z"/>
 <path d="M1341 6596 c-7 -8 -8 -17 -3 -20 6 -3 15 1 21 8 7 8 8 17 3 20 -6 3 -15 -1 -21 -8z"/>
 <path d="M1276 6541 c-10 -11 -13 -22 -8 -25 5 -3 17 3 26 13 10 11 13 22 8 25 -5 3 -17 -3 -26 -13z"/>
 <path d="M1201 6476 c-13 -13 -18 -26 -13 -30 5 -3 19 5 31 18 13 13 18 26 13 30 -5 3 -19 -5 -31 -18z"/>
 <path d="M1111 6386 c-7 -8 -8 -17 -3 -20 6 -3 15 1 21 8 7 8 8 17 3 20 -6 3 -15 -1 -21 -8z"/>
 <path d="M981 6246 c-7 -8 -8 -17 -3 -20 6 -3 15 1 21 8 7 8 8 17 3 20 -6 3 -15 -1 -21 -8z"/>
 <path d="M742 5938 c-23 -35 -18 -63 5 -32 26 34 33 53 24 58 -5 3 -18 -8 -29 -26z"/>
 <path d="M6257 5383 c-4 -6 0 -18 7 -28 8 -11 16 -14 19 -8 4 6 0 18 -7 28 -8 11 -16 14 -19 8z"/>
 <path d="M179 4746 c-1 -3 -2 -9 -3 -13 -1 -5 -5 -13 -9 -20 -4 -6 -3 -14 3 -18 5 -3 11 -4 11 -1 1 3 2 9 3 14 1 4 5 12 9 19 4 6 3 14 -3 18 -5 3 -11 4 -11 1z"/>
 <path d="M4602 4507 c-23 -29 -51 -96 -42 -102 5 -3 17 9 26 27 9 18 23 43 31 55 15 23 2 41 -15 20z"/>
 </g>

<g fill="#cfe7fe" stroke="none">
 <path d="M1940 7384 c-287 -39 -622 -259 -877 -574 -314 -391 -589 -978 -792 -1694 -27 -94 -52 -188 -55 -207 -3 -20 -10 -49 -16 -64 -6 -15 -8 -30 -5 -33 2 -3 0 -11 -6 -18 -7 -8 -7 -14 1 -19 5 -3 11 -4 11 -1 5 21 14 45 44 111 12 28 44 109 70 180 88 239 227 523 351 717 26 40 58 93 73 119 40 74 255 343 361 453 115 120 316 291 425 361 92 60 217 125 241 125 8 0 54 13 100 30 147 52 271 73 434 73 171 0 295 -19 455 -70 431 -138 794 -425 1050 -829 66 -104 197 -368 250 -504 95 -241 201 -607 274 -938 30 -136 48 -180 89 -224 19 -21 35 -28 62 -28 46 0 65 19 125 130 64 116 218 348 324 489 345 456 680 684 944 641 97 -15 168 -44 238 -98 34 -26 68 -51 74 -56 7 -5 20 -6 29 -3 14 6 9 18 -34 82 -271 401 -644 638 -925 586 -193 -36 -331 -175 -544 -551 -102 -181 -142 -236 -186 -257 -34 -16 -36 -16 -59 6 -32 30 -75 113 -179 347 -258 579 -457 893 -749 1181 -125 124 -189 176 -323 265 -160 106 -351 191 -535 238 -180 46 -535 62 -740 34z"/>
 <path d="M6237 5423 c-4 -6 0 -18 7 -28 8 -11 16 -14 19 -8 4 6 0 18 -7 28 -8 11 -16 14 -19 8z"/>
 </g>

<g fill="#8dc6ff" stroke="none">
 <path d="M2165 6960 c-172 -20 -403 -96 -560 -185 -145 -82 -293 -202 -475 -384 -197 -198 -298 -322 -435 -534 -179 -277 -298 -517 -415 -831 -93 -252 -135 -385 -168 -541 -83 -383 -112 -702 -112 -1245 0 -459 26 -758 96 -1110 154 -773 418 -1346 789 -1715 232 -231 486 -365 754 -401 138 -18 387 -18 527 1 602 79 1263 674 1711 1541 46 88 83 171 83 184 0 53 -92 636 -101 645 -8 7 -15 4 -23 -9 -402 -651 -908 -1081 -1378 -1171 -121 -23 -253 -29 -371 -16 -411 45 -722 252 -908 604 -202 385 -323 999 -290 1478 49 704 350 1392 731 1674 130 95 316 168 540 211 140 26 348 25 463 -4 325 -81 559 -306 810 -782 176 -332 282 -678 436 -1415 155 -739 214 -981 296 -1201 123 -327 299 -548 499 -623 138 -51 323 -47 445 10 214 99 469 392 684 784 159 289 273 621 265 769 -7 132 -68 86 -245 -184 -64 -96 -145 -219 -180 -272 -113 -170 -229 -257 -353 -266 -171 -12 -272 85 -387 371 -170 422 -199 980 -73 1392 50 162 176 364 330 528 202 217 462 315 633 239 71 -32 113 -68 161 -141 121 -184 156 -396 156 -944 0 -200 4 -325 10 -338 42 -77 141 81 204 324 68 261 96 579 96 1082 0 534 -30 713 -149 902 -33 54 -153 158 -220 192 -106 55 -256 70 -366 37 -283 -84 -600 -385 -935 -886 -46 -69 -106 -168 -133 -220 -62 -121 -80 -140 -127 -140 -63 0 -91 49 -131 232 -73 331 -179 697 -274 938 -53 136 -184 400 -250 505 -220 347 -507 601 -868 770 -250 116 -553 172 -792 145z"/>
 </g>

</svg>