<?xml version="1.0" encoding="UTF-8" ?>
<!DOCTYPE svg PUBLIC "-//W3C//DTD SVG 1.1//EN" "http://www.w3.org/Graphics/SVG/1.1/DTD/svg11.dtd">
<svg width="128pt" height="128pt" viewBox="0 0 128 128" version="1.1" xmlns="http://www.w3.org/2000/svg">
<g id="#8dc6ffff">
<path fill="#8dc6ff" opacity="1.00" d=" M 31.52 0.00 L 32.31 0.00 C 39.60 0.33 46.91 2.74 52.46 7.57 C 59.66 13.50 63.94 22.71 63.91 32.03 C 63.94 36.89 62.69 41.65 61.46 46.31 C 59.62 48.71 57.27 50.64 55.18 52.80 C 52.79 50.40 50.40 48.00 48.00 45.60 C 41.95 52.10 36.87 59.80 28.78 64.02 C 20.24 62.50 12.02 58.23 6.69 51.26 C 2.41 45.95 0.32 39.19 0.00 32.44 L 0.00 31.58 C 0.18 27.35 1.05 23.20 2.36 19.17 C 10.14 26.89 17.84 34.67 25.59 42.41 C 31.20 36.80 36.81 31.20 42.41 25.59 C 34.66 17.84 26.88 10.14 19.18 2.36 C 23.18 1.06 27.31 0.19 31.52 0.00 Z" />
<path fill="#8dc6ff" opacity="1.00" d=" M 104.45 8.75 C 110.30 5.84 116.44 3.52 122.40 0.82 C 124.19 2.69 126.06 4.50 128.00 6.22 L 128.00 6.70 C 124.84 12.37 122.14 18.27 119.15 24.03 C 116.11 25.06 112.98 25.86 110.04 27.17 C 108.03 28.38 106.55 30.28 104.87 31.88 C 91.27 45.55 77.62 59.16 64.00 72.81 C 66.39 75.21 68.79 77.60 71.18 80.00 C 68.88 82.06 66.58 84.11 64.26 86.14 C 60.87 84.26 56.57 83.58 53.36 86.23 C 48.85 88.69 49.82 94.45 48.16 98.56 C 44.88 107.39 36.84 113.03 30.67 119.74 C 27.34 122.60 24.82 127.39 19.90 127.45 C 14.73 128.05 9.97 125.08 6.46 121.57 C 2.93 118.05 -0.06 113.27 0.55 108.08 C 0.57 103.38 5.06 100.91 7.82 97.77 C 14.35 91.71 19.90 84.20 28.04 80.18 C 32.80 77.61 39.79 79.09 42.72 73.62 C 45.19 70.55 43.98 66.59 41.86 63.72 C 43.90 61.41 45.95 59.11 48.00 56.82 C 50.40 59.21 52.79 61.61 55.19 64.00 C 68.38 50.59 81.55 37.15 94.76 23.76 C 97.04 21.34 99.87 19.22 101.02 15.99 C 102.19 13.61 102.71 10.80 104.45 8.75 M 8.81 113.61 C 10.68 115.46 12.54 117.33 14.40 119.19 C 24.54 109.06 34.68 98.94 44.81 88.81 C 42.94 86.94 41.06 85.06 39.19 83.19 C 29.06 93.33 18.92 103.45 8.81 113.61 Z" />
<path fill="#8dc6ff" opacity="1.00" d=" M 75.19 72.81 C 77.59 70.40 80.00 68.00 82.41 65.60 C 95.91 79.10 109.42 92.60 122.91 106.11 C 125.67 108.92 127.99 112.69 127.37 116.79 C 126.77 123.10 120.40 128.36 114.07 127.32 C 110.68 126.98 107.98 124.68 105.61 122.44 C 94.69 111.47 83.75 100.54 72.81 89.60 C 76.01 86.39 79.21 83.20 82.41 80.00 C 80.00 77.60 77.59 75.21 75.19 72.81 M 111.45 107.63 C 107.47 108.85 105.97 114.24 108.53 117.44 C 111.34 121.59 119.25 120.40 119.79 115.08 C 121.28 110.22 116.10 105.65 111.45 107.63 Z" />
</g>
</svg>
