<?xml version="1.0" encoding="UTF-8" ?>
<!DOCTYPE svg PUBLIC "-//W3C//DTD SVG 1.1//EN" "http://www.w3.org/Graphics/SVG/1.1/DTD/svg11.dtd">
<svg width="128pt" height="128pt" viewBox="0 0 128 128" version="1.1" xmlns="http://www.w3.org/2000/svg">
<g id="#8dc6ffff">
<path fill="#8dc6ff" opacity="1.00" d=" M 103.37 19.53 C 101.40 17.30 103.00 13.21 106.02 13.09 C 111.01 12.73 116.03 12.53 121.03 12.57 C 123.27 12.50 124.98 14.73 124.82 16.87 C 124.71 21.70 124.66 26.55 124.25 31.37 C 124.07 34.33 120.13 35.90 117.89 34.02 C 115.57 32.31 116.46 29.13 116.33 26.68 C 106.56 34.50 96.77 42.30 86.99 50.10 C 85.17 51.71 82.51 52.38 80.51 50.65 C 70.23 43.31 60.08 35.80 49.84 28.41 C 35.43 37.51 21.11 46.75 6.65 55.77 C 4.27 57.71 0.19 56.16 0.07 53.01 C -0.31 50.74 1.69 49.31 3.35 48.26 C 16.39 40.03 29.40 31.75 42.41 23.48 C 44.85 21.83 47.38 20.28 50.13 19.20 C 52.68 20.38 55.01 21.98 57.22 23.70 C 65.90 30.03 74.59 36.34 83.28 42.65 C 92.34 35.46 101.32 28.17 110.43 21.03 C 108.07 20.89 105.05 21.72 103.37 19.53 Z" />
<path fill="#8dc6ff" opacity="1.00" d=" M 42.22 42.31 C 48.12 42.05 54.05 42.15 59.96 42.26 C 62.44 42.18 64.17 44.61 63.92 46.95 C 63.98 67.98 63.92 89.02 63.95 110.06 C 64.18 112.32 63.14 115.15 60.57 115.39 C 55.71 115.76 50.83 115.41 45.97 115.56 C 43.94 115.43 41.43 115.92 39.90 114.22 C 38.55 112.83 38.86 110.74 38.76 108.99 C 38.83 88.32 38.73 67.65 38.81 46.98 C 38.60 44.86 39.95 42.50 42.22 42.31 M 46.91 50.34 C 46.91 69.35 46.91 88.36 46.91 107.37 C 49.87 107.37 52.82 107.37 55.78 107.37 C 55.78 88.36 55.78 69.35 55.78 50.34 C 52.82 50.34 49.87 50.34 46.91 50.34 Z" />
<path fill="#8dc6ff" opacity="1.00" d=" M 102.85 48.96 C 102.54 46.47 104.13 43.59 106.93 43.77 C 112.61 43.61 118.32 43.59 124.00 43.78 C 125.99 43.62 127.14 45.32 128.00 46.83 L 128.00 112.15 C 127.33 113.54 126.49 115.27 124.70 115.35 C 119.81 115.80 114.89 115.42 109.99 115.56 C 107.95 115.42 105.40 115.91 103.91 114.15 C 102.65 112.77 102.95 110.75 102.82 109.04 C 102.88 89.01 102.81 68.99 102.85 48.96 M 110.97 51.85 C 110.97 70.35 110.97 88.86 110.97 107.37 C 113.93 107.37 116.89 107.37 119.84 107.37 C 119.84 88.86 119.84 70.36 119.84 51.85 C 116.89 51.85 113.93 51.85 110.97 51.85 Z" />
<path fill="#8dc6ff" opacity="1.00" d=" M 9.20 65.09 C 15.11 64.35 21.14 64.90 27.09 64.77 C 29.51 64.47 31.97 66.34 31.85 68.88 C 31.99 82.61 31.86 96.34 31.91 110.08 C 32.13 112.31 31.13 115.11 28.59 115.37 C 22.78 115.73 16.93 115.50 11.11 115.49 C 8.63 115.70 6.54 113.44 6.78 110.98 C 6.71 97.29 6.76 83.60 6.76 69.92 C 6.61 67.99 7.32 65.91 9.20 65.09 M 14.88 72.91 C 14.88 84.40 14.88 95.89 14.88 107.37 C 17.83 107.37 20.79 107.37 23.75 107.38 C 23.75 95.89 23.75 84.40 23.75 72.91 C 20.79 72.91 17.84 72.91 14.88 72.91 Z" />
<path fill="#8dc6ff" opacity="1.00" d=" M 74.23 68.26 C 80.12 67.98 86.04 68.10 91.93 68.19 C 94.44 68.09 96.22 70.54 95.95 72.91 C 95.98 85.61 96.01 98.32 95.94 111.03 C 96.13 113.35 94.23 115.60 91.83 115.47 C 86.26 115.60 80.68 115.57 75.11 115.49 C 72.65 115.68 70.61 113.41 70.85 111.00 C 70.78 98.31 70.80 85.60 70.84 72.91 C 70.63 70.78 71.97 68.45 74.23 68.26 M 78.94 76.25 C 78.94 86.62 78.94 97.00 78.94 107.37 C 81.90 107.37 84.85 107.37 87.81 107.37 C 87.81 97.00 87.81 86.62 87.81 76.25 C 84.85 76.25 81.90 76.25 78.94 76.25 Z" />
</g>
</svg>
