<?xml version="1.0" encoding="UTF-8" ?>
<!DOCTYPE svg PUBLIC "-//W3C//DTD SVG 1.1//EN" "http://www.w3.org/Graphics/SVG/1.1/DTD/svg11.dtd">
<svg width="128pt" height="128pt" viewBox="0 0 128 128" version="1.1" xmlns="http://www.w3.org/2000/svg">
<g id="#8dc6ffff">
<path fill="#8dc6ff" opacity="1.00" d=" M 57.20 10.20 C 62.54 6.00 70.94 8.08 74.28 13.82 C 77.06 17.55 76.45 22.55 74.72 26.59 C 80.02 26.53 85.33 26.58 90.63 26.56 C 90.63 30.77 90.63 34.98 90.63 39.18 C 103.09 39.19 115.54 39.18 128.00 39.18 L 128.00 120.06 C 85.33 120.06 42.67 120.06 0.00 120.06 L 0.00 39.18 C 12.46 39.18 24.91 39.19 37.37 39.18 C 37.37 34.98 37.37 30.77 37.37 26.57 C 42.68 26.57 47.99 26.53 53.30 26.59 C 50.44 21.03 51.76 13.64 57.20 10.20 M 61.53 14.65 C 57.21 16.33 56.65 23.00 60.66 25.33 C 64.14 27.84 69.62 25.37 70.03 21.10 C 70.91 16.57 65.65 12.61 61.53 14.65 M 43.50 44.18 C 57.17 44.19 70.83 44.19 84.50 44.18 C 84.50 40.34 84.50 36.50 84.50 32.66 C 70.83 32.66 57.17 32.66 43.50 32.66 C 43.50 36.50 43.50 40.34 43.50 44.18 M 6.13 45.31 C 6.12 68.19 6.12 91.06 6.12 113.94 C 44.71 113.94 83.29 113.94 121.88 113.94 C 121.87 91.06 121.88 68.19 121.87 45.31 C 111.46 45.32 101.04 45.31 90.63 45.32 C 90.62 46.98 90.63 48.65 90.62 50.31 C 72.87 50.31 55.12 50.32 37.37 50.31 C 37.37 48.65 37.37 46.98 37.37 45.32 C 26.96 45.31 16.54 45.32 6.13 45.31 Z" />
<path fill="#8dc6ff" opacity="1.00" d=" M 24.34 63.41 C 27.57 58.01 35.63 56.59 40.50 60.59 C 45.58 64.21 46.20 71.90 42.47 76.73 C 45.59 78.76 48.51 81.32 50.06 84.79 C 52.69 90.13 51.78 96.24 51.93 101.97 C 39.96 101.97 27.98 101.97 16.01 101.97 C 16.16 95.99 15.18 89.53 18.21 84.06 C 19.75 81.03 22.38 78.79 25.13 76.88 C 22.27 73.03 21.49 67.48 24.34 63.41 M 30.50 65.44 C 27.37 67.76 28.33 73.29 32.10 74.34 C 35.73 75.75 39.83 71.96 38.69 68.23 C 38.04 64.68 33.19 63.04 30.50 65.44 M 26.50 83.53 C 22.69 86.37 22.01 91.40 22.05 95.83 C 29.99 95.85 37.94 95.85 45.89 95.83 C 45.78 92.33 45.71 88.46 43.39 85.61 C 39.70 80.29 31.39 79.33 26.50 83.53 Z" />
<path fill="#8dc6ff" opacity="1.00" d=" M 67.44 59.91 C 82.10 59.90 96.77 59.91 111.44 59.91 C 111.44 61.94 111.44 63.97 111.44 66.00 C 96.77 66.00 82.10 66.00 67.43 66.00 C 67.43 63.97 67.44 61.94 67.44 59.91 Z" />
<path fill="#8dc6ff" opacity="1.00" d=" M 67.44 76.56 C 82.10 76.56 96.77 76.56 111.44 76.56 C 111.44 78.60 111.44 80.64 111.44 82.69 C 96.77 82.69 82.10 82.69 67.43 82.69 C 67.43 80.64 67.43 78.60 67.44 76.56 Z" />
<path fill="#8dc6ff" opacity="1.00" d=" M 67.44 93.25 C 82.10 93.25 96.77 93.24 111.44 93.25 C 111.44 95.28 111.44 97.31 111.44 99.34 C 96.77 99.34 82.10 99.35 67.44 99.34 C 67.44 97.31 67.44 95.28 67.44 93.25 Z" />
</g>
</svg>
