<?xml version="1.0" encoding="UTF-8" ?>
<!DOCTYPE svg PUBLIC "-//W3C//DTD SVG 1.1//EN" "http://www.w3.org/Graphics/SVG/1.1/DTD/svg11.dtd">
<svg width="128pt" height="128pt" viewBox="0 0 128 128" version="1.1" xmlns="http://www.w3.org/2000/svg">
<g id="#8dc6ffff">
<path fill="#8dc6ff" opacity="1.00" d=" M 0.00 21.12 C 0.26 17.10 3.89 13.95 7.90 14.24 C 35.61 14.18 63.33 14.23 91.04 14.22 C 94.09 14.05 97.44 15.31 98.76 18.24 C 100.07 21.47 99.43 25.05 99.56 28.44 C 102.94 28.57 106.51 27.94 109.74 29.23 C 112.22 30.32 113.43 32.94 113.79 35.49 C 116.83 35.63 119.94 35.31 122.94 35.99 C 125.24 36.50 126.44 38.72 128.00 40.26 L 128.00 40.92 C 127.85 42.92 127.61 44.92 127.23 46.89 C 122.85 66.57 118.46 86.26 114.11 105.95 C 113.61 108.17 113.06 110.66 111.13 112.12 C 109.19 113.88 106.43 113.77 103.99 113.80 C 71.97 113.74 39.94 113.83 7.92 113.76 C 3.88 114.07 0.22 110.88 0.00 106.83 L 0.00 21.12 M 7.20 21.29 C 7.07 49.76 7.08 78.24 7.19 106.70 C 9.49 106.64 11.79 106.64 14.08 106.71 C 18.85 86.35 23.11 65.87 27.67 45.46 C 28.38 42.58 28.58 39.10 31.16 37.15 C 33.61 35.12 36.99 35.62 39.94 35.55 C 52.72 35.51 65.50 35.68 78.28 35.47 C 78.44 32.61 80.21 29.79 83.03 28.92 C 86.09 28.06 89.31 28.55 92.45 28.44 C 92.41 26.11 92.43 23.78 92.52 21.46 C 64.09 21.16 35.64 21.49 7.20 21.29 Z" />
</g>
</svg>
